name analog
datacolumns 19
datarows 38
range 0.322 0.3405
endheader
time	ground_force_vx	ground_force_vy	ground_force_vz	ground_force_px	ground_force_py	ground_force_pz	l_ground_force_vx	l_ground_force_vy	l_ground_force_vz	l_ground_force_px	l_ground_force_py	l_ground_force_pz	ground_torque_x	ground_torque_y	ground_torque_z	l_ground_torque_x	l_ground_torque_y	l_ground_torque_z
0.322	-0.0	-0.0	-0.0	42.05957794189453	9.93431568145752	-399.7996826171875	46.23240280151367	0.1233676970005035	-342.71173095703125	-0.0	-0.0	-0.0	-0.0	-0.0	-0.0	102991.0390625	-11953.10546875	5626.23046875
0.3225	-0.0	-0.0	-0.0	44.76307678222656	10.592798233032228	-411.23736572265625	48.07424545288086	0.4764640629291534	-352.0826110839844	-0.0	-0.0	-0.0	-0.0	-0.0	-0.0	105872.3359375	-11844.3125	6026.447265625
0.323	-0.0	-0.0	-0.0	47.39117050170898	11.642133712768556	-421.5320129394531	50.86593627929688	1.1619826555252075	-363.11767578125	-0.0	-0.0	-0.0	-0.0	-0.0	-0.0	109198.640625	-11870.8408203125	6797.5546875
0.3235	-0.0	-0.0	-0.0	50.69858932495117	11.306063652038574	-437.8628845214844	53.73189926147461	1.739712119102478	-376.5207214355469	-0.0	-0.0	-0.0	-0.0	-0.0	-0.0	113208.796875	-12062.5029296875	7290.474609375
0.324	-0.0	-0.0	-0.0	53.91665267944336	11.751823425292969	-452.8562622070313	56.48142623901367	2.344014883041382	-393.3330993652344	-0.0	-0.0	-0.0	-0.0	-0.0	-0.0	118777.984375	-12465.474609375	7757.98779296875
0.3245	-0.0	-0.0	-0.0	56.52327728271485	11.108190536499023	-468.34283447265625	57.60036087036133	3.553072929382324	-411.7828979492188	-0.0	-0.0	-0.0	-0.0	-0.0	-0.0	124279.6953125	-12322.6865234375	7932.50244140625
0.325	-0.0	-0.0	-0.0	60.42846298217773	11.141300201416016	-485.6485290527344	58.89723587036133	4.056100368499756	-426.8221130371094	-0.0	-0.0	-0.0	-0.0	-0.0	-0.0	129177.84375	-12238.2080078125	7851.30810546875
0.3255	-0.0	-0.0	-0.0	65.50672149658203	11.306469917297363	-501.1722412109375	59.00605392456055	3.7361481189727774	-441.7294616699219	-0.0	-0.0	-0.0	-0.0	-0.0	-0.0	133487.09375	-11794.806640625	7689.5263671875
0.326	-0.0	-0.0	-0.0	69.13815307617188	11.739322662353516	-522.757568359375	58.26975631713867	3.1993422508239746	-454.6474914550781	-0.0	-0.0	-0.0	-0.0	-0.0	-0.0	137156.640625	-10955.4599609375	6979.21435546875
0.3265	-0.0	-0.0	-0.0	71.8530044555664	12.821942329406738	-537.3900756835938	56.22295379638672	1.4262123107910156	-464.5007629394531	-0.0	-0.0	-0.0	-0.0	-0.0	-0.0	140435.21875	-9898.533203125	6064.341796875
0.327	-0.0	-0.0	-0.0	73.92375946044922	13.439652442932127	-552.87744140625	53.6440658569336	0.3597486615180969	-478.3632507324219	-0.0	-0.0	-0.0	-0.0	-0.0	-0.0	143828.71875	-8904.1953125	4993.58740234375
0.3275	-0.0	-0.0	-0.0	74.60517120361328	13.935796737670898	-563.4217529296875	51.17325592041016	-1.3248252868652344	-490.259521484375	-0.0	-0.0	-0.0	-0.0	-0.0	-0.0	148102.28125	-7782.35009765625	3958.166748046875
0.328	-0.0	-0.0	-0.0	75.74598693847656	14.820659637451172	-571.469970703125	50.48283767700195	-2.6751303672790527	-505.6974487304688	-0.0	-0.0	-0.0	-0.0	-0.0	-0.0	151724.953125	-6213.10400390625	3387.260498046875
0.3285	-0.0	-0.0	-0.0	75.37670135498047	15.502509117126465	-578.984375	49.06971740722656	-5.204681873321533	-518.3899536132812	-0.0	-0.0	-0.0	-0.0	-0.0	-0.0	156334.34375	-4758.94921875	3019.068359375
0.329	-0.0	-0.0	-0.0	73.43870544433594	15.902069091796877	-584.5371704101562	46.8330078125	-7.078256130218506	-532.8549194335938	-0.0	-0.0	-0.0	-0.0	-0.0	-0.0	159489.640625	-2772.483154296875	2050.76708984375
0.3295	-0.0	-0.0	-0.0	71.42715454101562	17.036083221435547	-590.8699951171875	42.72119522094727	-9.63947582244873	-541.88330078125	-0.0	-0.0	-0.0	-0.0	-0.0	-0.0	161806.84375	-342.3226928710937	761.1981201171875
0.33	-0.0	-0.0	-0.0	69.40577697753906	18.56920051574707	-598.663818359375	37.83021926879883	-11.664596557617188	-544.0267944335938	-0.0	-0.0	-0.0	-0.0	-0.0	-0.0	162967.390625	2083.799560546875	-690.0551147460938
0.3305	-0.0	-0.0	-0.0	67.42520141601562	20.315753936767575	-605.3978271484375	32.88108825683594	-13.065513610839844	-545.7481079101562	-0.0	-0.0	-0.0	-0.0	-0.0	-0.0	163253.296875	4939.650390625	-2123.9345703125
0.331	-0.0	-0.0	-0.0	65.08175659179688	21.37948608398437	-614.01611328125	27.39347648620605	-13.561421394348145	-546.1445922851562	-0.0	-0.0	-0.0	-0.0	-0.0	-0.0	163223.921875	8160.8173828125	-3791.078125
0.3315	-0.0	-0.0	-0.0	63.73867034912109	22.00350952148437	-619.2866821289062	22.514549255371094	-14.296172142028809	-545.025634765625	-0.0	-0.0	-0.0	-0.0	-0.0	-0.0	163325.1875	10939.3720703125	-5335.1669921875
0.332	-0.0	-0.0	-0.0	60.35478973388672	23.257221221923828	-624.4682006835938	17.41046905517578	-14.314046859741213	-547.7250366210938	-0.0	-0.0	-0.0	-0.0	-0.0	-0.0	163891.140625	13853.2900390625	-6948.5810546875
0.3325	-0.0	-0.0	-0.0	57.50056457519531	24.522340774536133	-625.9940795898438	11.987730026245115	-14.449588775634766	-548.4013671875	-0.0	-0.0	-0.0	-0.0	-0.0	-0.0	163996.09375	16295.2802734375	-8364.3408203125
0.333	-0.0	-0.0	-0.0	54.51903533935547	25.68665885925293	-624.422119140625	8.722898483276367	-13.949004173278809	-545.4439086914062	-0.0	-0.0	-0.0	-0.0	-0.0	-0.0	163693.484375	18929.146484375	-9341.5126953125
0.3335	-0.0	-0.0	-0.0	52.31703186035156	26.778757095336918	-624.0016479492188	6.358127117156982	-13.342358589172363	-544.60791015625	-0.0	-0.0	-0.0	-0.0	-0.0	-0.0	163373.65625	21559.68359375	-9969.869140625
0.334	-0.0	-0.0	-0.0	49.40583801269531	28.354646682739254	-622.3252563476562	5.1222758293151855	-14.362160682678224	-543.2347412109375	-0.0	-0.0	-0.0	-0.0	-0.0	-0.0	163169.546875	23767.09765625	-10348.9189453125
0.3345	-0.0	-0.0	-0.0	46.529109954833984	29.775089263916016	-621.7963256835938	3.282299041748047	-15.632938385009766	-543.5619506835938	-0.0	-0.0	-0.0	-0.0	-0.0	-0.0	163356.96875	26031.6875	-10536.171875
0.335	-0.0	-0.0	-0.0	42.83198165893555	30.61543083190918	-618.06494140625	1.9516372680664065	-17.008045196533203	-545.2644653320312	-0.0	-0.0	-0.0	-0.0	-0.0	-0.0	163866.6875	28245.654296875	-10921.1748046875
0.3355	-0.0	-0.0	-0.0	39.68243789672852	32.621726989746094	-617.9363403320312	0.8926642537117004	-19.601882934570312	-542.603515625	-0.0	-0.0	-0.0	-0.0	-0.0	-0.0	163644.984375	30582.232421875	-11076.4638671875
0.336	-0.0	-0.0	-0.0	37.63071060180664	33.33477020263672	-614.46923828125	-0.0110383220016956	-20.645294189453125	-541.5341796875	-0.0	-0.0	-0.0	-0.0	-0.0	-0.0	163124.40625	32884.28125	-11194.1318359375
0.3365	-0.0	-0.0	-0.0	35.70011138916016	34.2525634765625	-612.4560546875	-0.2552389204502105	-22.323694229125977	-539.439208984375	-0.0	-0.0	-0.0	-0.0	-0.0	-0.0	162324.09375	34822.125	-11070.5390625
0.337	-0.0	-0.0	-0.0	33.00262451171875	35.64690017700195	-609.9417724609375	-1.1586488485336304	-23.99657440185547	-538.6132202148438	-0.0	-0.0	-0.0	-0.0	-0.0	-0.0	161929.578125	36862.41015625	-10871.1923828125
0.3375	-0.0	-0.0	-0.0	30.599205017089844	36.622188568115234	-610.2330322265625	-2.938163995742798	-25.182342529296875	-535.884521484375	-0.0	-0.0	-0.0	-0.0	-0.0	-0.0	161869.171875	38716.35546875	-11303.32421875
0.338	-0.0	-0.0	-0.0	27.094314575195312	37.43989944458008	-609.3167114257812	-4.728079795837402	-26.309345245361328	-537.9386596679688	-0.0	-0.0	-0.0	-0.0	-0.0	-0.0	162045.28125	40274.4296875	-11659.1826171875
0.3385	-0.0	-0.0	-0.0	24.255062103271484	38.24203872680664	-611.0416870117188	-6.80975341796875	-27.073427200317383	-538.1045532226562	-0.0	-0.0	-0.0	-0.0	-0.0	-0.0	162118.984375	42236.17578125	-11812.7470703125
0.339	-0.0	-0.0	-0.0	21.871654510498047	39.207332611083984	-613.1004638671875	-8.683311462402344	-27.1147575378418	-539.5003051757812	-0.0	-0.0	-0.0	-0.0	-0.0	-0.0	163030.890625	43850.81640625	-12194.60546875
0.3395	-0.0	-0.0	-0.0	20.76616668701172	39.22731018066406	-615.1607666015625	-10.749356269836426	-26.963586807250977	-542.2525634765625	-0.0	-0.0	-0.0	-0.0	-0.0	-0.0	164259.765625	45157.07421875	-12625.134765625
0.34	-0.0	-0.0	-0.0	18.883028030395508	38.95491790771485	-616.6131591796875	-12.178776741027832	-26.81204605102539	-546.79150390625	-0.0	-0.0	-0.0	-0.0	-0.0	-0.0	165399.734375	46594.953125	-13158.341796875
0.3405	-0.0	-0.0	-0.0	16.101634979248047	38.50918960571289	-620.537109375	-14.548568725585938	-28.351261138916016	-549.5252685546875	-0.0	-0.0	-0.0	-0.0	-0.0	-0.0	166535.546875	48028.54296875	-13600.3291015625
